<?xml version="1.0" encoding="UTF-8" standalone="no"?>
<!DOCTYPE svg PUBLIC "-//W3C//DTD SVG 1.1//EN"
 "http://www.w3.org/Graphics/SVG/1.1/DTD/svg11.dtd">
<!-- Generated by graphviz version 9.0.0 (20230911.1827)
 -->
<!-- Pages: 1 -->
<svg width="598pt" height="310pt"
 viewBox="0.00 0.00 598.07 309.50" xmlns="http://www.w3.org/2000/svg" xmlns:xlink="http://www.w3.org/1999/xlink">
<g id="graph0" class="graph" transform="scale(1 1) rotate(0) translate(4 305.5)">
<polygon fill="white" stroke="none" points="-4,4 -4,-305.5 594.07,-305.5 594.07,4 -4,4"/>
<!-- 0 -->
<g id="node1" class="node">
<title>0</title>
<ellipse fill="lightgrey" stroke="black" cx="37.53" cy="-18" rx="37.53" ry="18"/>
<text text-anchor="middle" x="37.53" y="-12.95" font-family="Times,serif" font-size="14.00">normal</text>
</g>
<!-- 1 -->
<g id="node2" class="node">
<title>1</title>
<ellipse fill="lightgrey" stroke="black" cx="131.53" cy="-18" rx="38.04" ry="18"/>
<text text-anchor="middle" x="131.53" y="-12.95" font-family="Times,serif" font-size="14.00">suspect</text>
</g>
<!-- 2 -->
<g id="node3" class="node">
<title>2</title>
<path fill="yellow" stroke="black" d="M164.28,-124.5C164.28,-124.5 98.78,-124.5 98.78,-124.5 92.78,-124.5 86.78,-118.5 86.78,-112.5 86.78,-112.5 86.78,-100.5 86.78,-100.5 86.78,-94.5 92.78,-88.5 98.78,-88.5 98.78,-88.5 164.28,-88.5 164.28,-88.5 170.28,-88.5 176.28,-94.5 176.28,-100.5 176.28,-100.5 176.28,-112.5 176.28,-112.5 176.28,-118.5 170.28,-124.5 164.28,-124.5"/>
<text text-anchor="middle" x="131.53" y="-101.45" font-family="Times,serif" font-size="14.00">F7 &gt; 0.7249?</text>
</g>
<!-- 2&#45;&gt;0 -->
<g id="edge1" class="edge">
<title>2&#45;&gt;0</title>
<path fill="none" stroke="black" d="M112.96,-88.41C98.51,-75.12 78.33,-56.54 62.47,-41.95"/>
<polygon fill="black" stroke="black" points="65.02,-39.54 55.29,-35.34 60.28,-44.69 65.02,-39.54"/>
<text text-anchor="middle" x="107.78" y="-57.2" font-family="Times,serif" font-size="14.00">False</text>
</g>
<!-- 2&#45;&gt;1 -->
<g id="edge2" class="edge">
<title>2&#45;&gt;1</title>
<path fill="none" stroke="black" d="M131.53,-88.41C131.53,-76.76 131.53,-61.05 131.53,-47.52"/>
<polygon fill="black" stroke="black" points="135.03,-47.86 131.53,-37.86 128.03,-47.86 135.03,-47.86"/>
<text text-anchor="middle" x="144.28" y="-57.2" font-family="Times,serif" font-size="14.00">True</text>
</g>
<!-- 3 -->
<g id="node4" class="node">
<title>3</title>
<ellipse fill="lightgrey" stroke="black" cx="237.53" cy="-18" rx="49.82" ry="18"/>
<text text-anchor="middle" x="237.53" y="-12.95" font-family="Times,serif" font-size="14.00">pathologic</text>
</g>
<!-- 4 -->
<g id="node5" class="node">
<title>4</title>
<ellipse fill="lightgrey" stroke="black" cx="342.53" cy="-18" rx="37.53" ry="18"/>
<text text-anchor="middle" x="342.53" y="-12.95" font-family="Times,serif" font-size="14.00">normal</text>
</g>
<!-- 5 -->
<g id="node6" class="node">
<title>5</title>
<path fill="yellow" stroke="black" d="M327.91,-124.5C327.91,-124.5 251.16,-124.5 251.16,-124.5 245.16,-124.5 239.16,-118.5 239.16,-112.5 239.16,-112.5 239.16,-100.5 239.16,-100.5 239.16,-94.5 245.16,-88.5 251.16,-88.5 251.16,-88.5 327.91,-88.5 327.91,-88.5 333.91,-88.5 339.91,-94.5 339.91,-100.5 339.91,-100.5 339.91,-112.5 339.91,-112.5 339.91,-118.5 333.91,-124.5 327.91,-124.5"/>
<text text-anchor="middle" x="289.53" y="-101.45" font-family="Times,serif" font-size="14.00">F3 &gt; &#45;0.05405?</text>
</g>
<!-- 5&#45;&gt;3 -->
<g id="edge3" class="edge">
<title>5&#45;&gt;3</title>
<path fill="none" stroke="black" d="M279.26,-88.41C271.92,-76.21 261.91,-59.55 253.53,-45.62"/>
<polygon fill="black" stroke="black" points="256.72,-44.12 248.56,-37.35 250.72,-47.73 256.72,-44.12"/>
<text text-anchor="middle" x="282.78" y="-57.2" font-family="Times,serif" font-size="14.00">False</text>
</g>
<!-- 5&#45;&gt;4 -->
<g id="edge4" class="edge">
<title>5&#45;&gt;4</title>
<path fill="none" stroke="black" d="M300,-88.41C307.53,-76.13 317.82,-59.34 326.39,-45.35"/>
<polygon fill="black" stroke="black" points="329.23,-47.41 331.47,-37.05 323.26,-43.75 329.23,-47.41"/>
<text text-anchor="middle" x="334.28" y="-57.2" font-family="Times,serif" font-size="14.00">True</text>
</g>
<!-- 6 -->
<g id="node7" class="node">
<title>6</title>
<path fill="yellow" stroke="black" d="M318.91,-213C318.91,-213 260.16,-213 260.16,-213 254.16,-213 248.16,-207 248.16,-201 248.16,-201 248.16,-189 248.16,-189 248.16,-183 254.16,-177 260.16,-177 260.16,-177 318.91,-177 318.91,-177 324.91,-177 330.91,-183 330.91,-189 330.91,-189 330.91,-201 330.91,-201 330.91,-207 324.91,-213 318.91,-213"/>
<text text-anchor="middle" x="289.53" y="-189.95" font-family="Times,serif" font-size="14.00">F9 &gt; 3.173?</text>
</g>
<!-- 6&#45;&gt;2 -->
<g id="edge5" class="edge">
<title>6&#45;&gt;2</title>
<path fill="none" stroke="black" d="M257.94,-176.7C233.58,-163.37 199.69,-144.81 173.13,-130.27"/>
<polygon fill="black" stroke="black" points="175.12,-127.37 164.67,-125.64 171.76,-133.51 175.12,-127.37"/>
<text text-anchor="middle" x="239.78" y="-145.7" font-family="Times,serif" font-size="14.00">False</text>
</g>
<!-- 6&#45;&gt;5 -->
<g id="edge6" class="edge">
<title>6&#45;&gt;5</title>
<path fill="none" stroke="black" d="M289.53,-176.91C289.53,-165.26 289.53,-149.55 289.53,-136.02"/>
<polygon fill="black" stroke="black" points="293.03,-136.36 289.53,-126.36 286.03,-136.36 293.03,-136.36"/>
<text text-anchor="middle" x="302.28" y="-145.7" font-family="Times,serif" font-size="14.00">True</text>
</g>
<!-- 7 -->
<g id="node8" class="node">
<title>7</title>
<ellipse fill="lightgrey" stroke="black" cx="447.53" cy="-18" rx="49.82" ry="18"/>
<text text-anchor="middle" x="447.53" y="-12.95" font-family="Times,serif" font-size="14.00">pathologic</text>
</g>
<!-- 8 -->
<g id="node9" class="node">
<title>8</title>
<ellipse fill="lightgrey" stroke="black" cx="552.53" cy="-18" rx="37.53" ry="18"/>
<text text-anchor="middle" x="552.53" y="-12.95" font-family="Times,serif" font-size="14.00">normal</text>
</g>
<!-- 9 -->
<g id="node10" class="node">
<title>9</title>
<path fill="yellow" stroke="black" d="M480.28,-124.5C480.28,-124.5 414.78,-124.5 414.78,-124.5 408.78,-124.5 402.78,-118.5 402.78,-112.5 402.78,-112.5 402.78,-100.5 402.78,-100.5 402.78,-94.5 408.78,-88.5 414.78,-88.5 414.78,-88.5 480.28,-88.5 480.28,-88.5 486.28,-88.5 492.28,-94.5 492.28,-100.5 492.28,-100.5 492.28,-112.5 492.28,-112.5 492.28,-118.5 486.28,-124.5 480.28,-124.5"/>
<text text-anchor="middle" x="447.53" y="-101.45" font-family="Times,serif" font-size="14.00">F13 &gt; 3.146?</text>
</g>
<!-- 9&#45;&gt;7 -->
<g id="edge7" class="edge">
<title>9&#45;&gt;7</title>
<path fill="none" stroke="black" d="M447.53,-88.41C447.53,-76.76 447.53,-61.05 447.53,-47.52"/>
<polygon fill="black" stroke="black" points="451.03,-47.86 447.53,-37.86 444.03,-47.86 451.03,-47.86"/>
<text text-anchor="middle" x="461.78" y="-57.2" font-family="Times,serif" font-size="14.00">False</text>
</g>
<!-- 9&#45;&gt;8 -->
<g id="edge8" class="edge">
<title>9&#45;&gt;8</title>
<path fill="none" stroke="black" d="M468.53,-88.2C484.94,-74.68 507.87,-55.8 525.62,-41.17"/>
<polygon fill="black" stroke="black" points="527.71,-43.98 533.21,-34.92 523.26,-38.58 527.71,-43.98"/>
<text text-anchor="middle" x="522.28" y="-57.2" font-family="Times,serif" font-size="14.00">True</text>
</g>
<!-- 10 -->
<g id="node11" class="node">
<title>10</title>
<ellipse fill="lightgrey" stroke="black" cx="547.53" cy="-106.5" rx="37.53" ry="18"/>
<text text-anchor="middle" x="547.53" y="-101.45" font-family="Times,serif" font-size="14.00">normal</text>
</g>
<!-- 11 -->
<g id="node12" class="node">
<title>11</title>
<path fill="yellow" stroke="black" d="M482.53,-213C482.53,-213 412.53,-213 412.53,-213 406.53,-213 400.53,-207 400.53,-201 400.53,-201 400.53,-189 400.53,-189 400.53,-183 406.53,-177 412.53,-177 412.53,-177 482.53,-177 482.53,-177 488.53,-177 494.53,-183 494.53,-189 494.53,-189 494.53,-201 494.53,-201 494.53,-207 488.53,-213 482.53,-213"/>
<text text-anchor="middle" x="447.53" y="-189.95" font-family="Times,serif" font-size="14.00">F17 &gt; &#45;1.722?</text>
</g>
<!-- 11&#45;&gt;9 -->
<g id="edge9" class="edge">
<title>11&#45;&gt;9</title>
<path fill="none" stroke="black" d="M447.53,-176.91C447.53,-165.26 447.53,-149.55 447.53,-136.02"/>
<polygon fill="black" stroke="black" points="451.03,-136.36 447.53,-126.36 444.03,-136.36 451.03,-136.36"/>
<text text-anchor="middle" x="461.78" y="-145.7" font-family="Times,serif" font-size="14.00">False</text>
</g>
<!-- 11&#45;&gt;10 -->
<g id="edge10" class="edge">
<title>11&#45;&gt;10</title>
<path fill="none" stroke="black" d="M467.29,-176.91C482.8,-163.49 504.53,-144.7 521.47,-130.05"/>
<polygon fill="black" stroke="black" points="523.41,-132.99 528.68,-123.81 518.83,-127.7 523.41,-132.99"/>
<text text-anchor="middle" x="519.28" y="-145.7" font-family="Times,serif" font-size="14.00">True</text>
</g>
<!-- 12 -->
<g id="node13" class="node">
<title>12</title>
<path fill="yellow" stroke="black" d="M377.16,-301.5C377.16,-301.5 313.91,-301.5 313.91,-301.5 307.91,-301.5 301.91,-295.5 301.91,-289.5 301.91,-289.5 301.91,-277.5 301.91,-277.5 301.91,-271.5 307.91,-265.5 313.91,-265.5 313.91,-265.5 377.16,-265.5 377.16,-265.5 383.16,-265.5 389.16,-271.5 389.16,-277.5 389.16,-277.5 389.16,-289.5 389.16,-289.5 389.16,-295.5 383.16,-301.5 377.16,-301.5"/>
<text text-anchor="middle" x="345.53" y="-278.45" font-family="Times,serif" font-size="14.00">F8 &gt; &#45;0.886?</text>
</g>
<!-- 12&#45;&gt;6 -->
<g id="edge11" class="edge">
<title>12&#45;&gt;6</title>
<path fill="none" stroke="black" d="M334.47,-265.41C326.62,-253.29 315.93,-236.77 306.94,-222.89"/>
<polygon fill="black" stroke="black" points="309.96,-221.11 301.59,-214.62 304.08,-224.92 309.96,-221.11"/>
<text text-anchor="middle" x="337.78" y="-234.2" font-family="Times,serif" font-size="14.00">False</text>
</g>
<!-- 12&#45;&gt;11 -->
<g id="edge12" class="edge">
<title>12&#45;&gt;11</title>
<path fill="none" stroke="black" d="M365.68,-265.41C380.81,-252.58 401.74,-234.83 418.65,-220.49"/>
<polygon fill="black" stroke="black" points="420.56,-223.47 425.92,-214.33 416.03,-218.13 420.56,-223.47"/>
<text text-anchor="middle" x="419.28" y="-234.2" font-family="Times,serif" font-size="14.00">True</text>
</g>
</g>
</svg>
